
_____________________________________________________________________________ 
       ooooooo        ooooooo       ooo       ooooooo      ooooo      ooo
    ooo       ooo  ooo       ooo    ooo    ooo       ooo   oooooo     ooo 
    ooo       ooo  ooo      ooo     ooo    ooo       ooo   ooo ooo    ooo 
    ooo       ooo  ooo     ooo      ooo    ooo       ooo   ooo  ooo   ooo 
    ooo       ooo  oooooooooo       ooo    ooo       ooo   ooo   ooo  ooo
    ooo       ooo  ooo     ooo      ooo    ooo       ooo   ooo    ooo ooo
    ooo       ooo  ooo      ooo     ooo    ooo       ooo   ooo     oooooo
       ooooooo     ooo       ooo    ooo       ooooooo      ooo      ooooo
          
                                                 
                        ooooooo ooooooo         ooooooo       
                      ooo     ooo     ooo     ooo
                      ooo     ooo     ooo     ooo
                      ooo     ooo     ooo     ooooooooo
                      ooo     ooo     ooo     ooooooooo
                      ooo     ooo     ooo     ooo
                      ooo     ooo     ooo     ooo
                      ooo     ooo     ooo       ooooooo
______________________________________________________________________________

KEEP LOOKING FORWARD TO FUTURE RELEASES.......Please seed as long as you can!!

 
http://bayimg.com/mAkLAAAEN


General
Complete name                    : Vanessa Anne Hudgens@The Tonight Show with Jay Leno March 20,2013 720p HD[Orion_Me].mkv
Format                           : Matroska
File size                        : 435 MiB
Duration                         : 12mn 0s
Overall bit rate                 : 5 057 Kbps
Encoded date                     : UTC 2013-03-21 08:47:44
Writing application              : mkvmerge v3.3.0 ('Language') built on Mar 24 2010 14:59:24
Writing library                  : libebml v0.8.0 + libmatroska v0.9.0

Video
ID                               : 1
Format                           : AVC
Format/Info                      : Advanced Video Codec
Format profile                   : High@L4.1
Format settings, CABAC           : Yes
Format settings, ReFrames        : 5 frames
Muxing mode                      : Container profile=Unknown@4.1
Codec ID                         : V_MPEG4/ISO/AVC
Duration                         : 12mn 0s
Bit rate                         : 4 573 Kbps
Width                            : 1 280 pixels
Height                           : 720 pixels
Display aspect ratio             : 16:9
Frame rate                       : 59.940 fps
Color space                      : YUV
Chroma subsampling               : 4:2:0
Bit depth                        : 8 bits
Scan type                        : Progressive
Bits/(Pixel*Frame)               : 0.083
Stream size                      : 393 MiB (90%)
Language                         : English

Audio
ID                               : 2
Format                           : AC-3
Format/Info                      : Audio Coding 3
Mode extension                   : CM (complete main)
Codec ID                         : A_AC3
Duration                         : 12mn 0s
Bit rate mode                    : Constant
Bit rate                         : 384 Kbps
Channel(s)                       : 2 channels
Channel positions                : Front: L R
Sampling rate                    : 48.0 KHz
Bit depth                        : 16 bits
Video delay                      : 3ms
Stream size                      : 33.0 MiB (8%)


            --The Most Important Things In Life Aren't Free--


